<?xml version="1.0" encoding="UTF-8"?>
<svg width="30px" height="30px" viewBox="0 0 30 30" version="1.1" xmlns="http://www.w3.org/2000/svg" xmlns:xlink="http://www.w3.org/1999/xlink">
    <title>Group 2</title>
    <g id="Page-1" stroke="none" stroke-width="1" fill="none" fill-rule="evenodd">
        <g id="Group-2" fill-rule="nonzero">
            <g id="public-transportation-svgrepo-com" fill="#5C9783">
                <path d="M23.7723038,30 L6.2278481,30 C2.79379747,30 0,27.2058987 0,23.7714684 L0,6.2276962 C0,2.79372152 2.79379747,0 6.2278481,0 L23.7723038,0 C27.2062785,0 30,2.79372152 30,6.2276962 L30,23.7714684 C30,27.2058987 27.2062785,30 23.7723038,30 Z M6.2278481,1.13924051 C3.42197468,1.13924051 1.13924051,3.42189873 1.13924051,6.2276962 L1.13924051,23.7714684 C1.13924051,26.5777215 3.42197468,28.8607595 6.2278481,28.8607595 L23.7723038,28.8607595 C26.5780253,28.8607595 28.8607595,26.5777215 28.8607595,23.7714684 L28.8607595,6.2276962 C28.8607595,3.42189873 26.5780253,1.13924051 23.7723038,1.13924051 L6.2278481,1.13924051 Z" id="Shape"></path>
            </g>
            <g id="route-svgrepo-com" transform="translate(7.000000, 7.000000)">
                <path d="M12.2223729,16 C12.0724068,16 11.9511864,15.8787797 11.9511864,15.7288136 C11.9511864,15.5788475 12.0724068,15.4576271 12.2223729,15.4576271 L12.7457627,15.4576271 C12.8957288,15.4576271 13.0264407,15.5788475 13.0264407,15.7285424 C13.0264407,15.8785085 12.9147119,15.9997288 12.7647458,15.9997288 L12.7647458,15.7285424 L12.7568814,15.9997288 L12.2223729,16 Z M11.1376271,16 L10.5952542,16 C10.4452881,16 10.3240678,15.8787797 10.3240678,15.7288136 C10.3240678,15.5788475 10.4452881,15.4576271 10.5952542,15.4576271 L11.1376271,15.4576271 C11.2875932,15.4576271 11.4088136,15.5788475 11.4088136,15.7288136 C11.4088136,15.8787797 11.2875932,16 11.1376271,16 Z M9.51050847,16 L8.96813559,16 C8.81816949,16 8.69694915,15.8787797 8.69694915,15.7288136 C8.69694915,15.5788475 8.81816949,15.4576271 8.96813559,15.4576271 L9.51050847,15.4576271 C9.66047458,15.4576271 9.78169492,15.5788475 9.78169492,15.7288136 C9.78169492,15.8787797 9.66047458,16 9.51050847,16 Z M7.88338983,16 L7.34101695,16 C7.19105085,16 7.06983051,15.8787797 7.06983051,15.7288136 C7.06983051,15.5788475 7.19105085,15.4576271 7.34101695,15.4576271 L7.88338983,15.4576271 C8.03335593,15.4576271 8.15457627,15.5788475 8.15457627,15.7288136 C8.15457627,15.8787797 8.03335593,16 7.88338983,16 Z M6.25627119,16 L5.71389831,16 C5.5639322,16 5.44271186,15.8787797 5.44271186,15.7288136 C5.44271186,15.5788475 5.5639322,15.4576271 5.71389831,15.4576271 L6.25627119,15.4576271 C6.40623729,15.4576271 6.52745763,15.5788475 6.52745763,15.7288136 C6.52745763,15.8787797 6.40623729,16 6.25627119,16 Z M4.62915254,16 L4.08677966,16 C3.93681356,16 3.81559322,15.8787797 3.81559322,15.7288136 C3.81559322,15.5788475 3.93681356,15.4576271 4.08677966,15.4576271 L4.62915254,15.4576271 C4.77911864,15.4576271 4.90033898,15.5788475 4.90033898,15.7288136 C4.90033898,15.8787797 4.77911864,16 4.62915254,16 Z M13.7049492,15.5341017 C13.6463729,15.5341017 13.5872542,15.5151186 13.5376271,15.4760678 C13.419661,15.383322 13.3995932,15.2127458 13.4920678,15.095322 C13.5802034,14.983322 13.640678,14.8561356 13.6718644,14.7178305 C13.704678,14.571661 13.8497627,14.48 13.9959322,14.5128136 C14.1421017,14.5456271 14.2337627,14.6907119 14.2009492,14.8368814 C14.152678,15.051661 14.0550508,15.2569492 13.9183729,15.4302373 C13.8649492,15.4985763 13.7854915,15.5341017 13.7049492,15.5341017 Z M13.7052203,14.0254915 C13.624678,14.0254915 13.5452203,13.9899661 13.4917966,13.9218983 C13.4050169,13.8115254 13.2927458,13.7201356 13.1671864,13.6577627 C13.0332203,13.5910508 12.9784407,13.428339 13.0451525,13.2941017 C13.1118644,13.1601356 13.2740339,13.1050847 13.4088136,13.1720678 C13.6059661,13.2699661 13.7819661,13.4134237 13.9183729,13.5864407 C14.0108475,13.7041356 13.9907797,13.8747119 13.8728136,13.9671864 C13.8231864,14.0062373 13.7637966,14.0254915 13.7052203,14.0254915 Z M12.2226441,13.559322 L11.6802712,13.559322 C11.5303051,13.559322 11.4090847,13.4381017 11.4090847,13.2881356 C11.4090847,13.1381695 11.5303051,13.0169492 11.6802712,13.0169492 L12.2226441,13.0169492 C12.3726102,13.0169492 12.4938305,13.1381695 12.4938305,13.2881356 C12.4938305,13.4381017 12.3726102,13.559322 12.2226441,13.559322 Z M10.5955254,13.559322 L10.0531525,13.559322 C9.90318644,13.559322 9.7819661,13.4381017 9.7819661,13.2881356 C9.7819661,13.1381695 9.90318644,13.0169492 10.0531525,13.0169492 L10.5955254,13.0169492 C10.7454915,13.0169492 10.8667119,13.1381695 10.8667119,13.2881356 C10.8667119,13.4381017 10.7454915,13.559322 10.5955254,13.559322 Z M8.98413559,13.4492203 C8.94644068,13.4492203 8.90820339,13.4413559 8.87159322,13.4245424 C8.672,13.3334237 8.49138983,13.195661 8.34901695,13.0267119 C8.25274576,12.912 8.26738983,12.7408814 8.38210169,12.6446102 C8.49681356,12.548339 8.66766102,12.5629831 8.76420339,12.6776949 C8.85477966,12.7853559 8.9700339,12.8732203 9.09722034,12.9315254 C9.23335593,12.9936271 9.29328814,13.1544407 9.23091525,13.2908475 C9.18535593,13.3903729 9.08718644,13.4492203 8.98413559,13.4492203 Z M8.29288136,12.1084746 C8.27579661,12.1084746 8.25871186,12.1068475 8.24162712,12.1035932 C8.09437288,12.0753898 7.99837288,11.9330169 8.02630508,11.7860339 C8.06833898,11.5666441 8.15728814,11.3640678 8.29016949,11.1834576 C8.37911864,11.0627797 8.54861017,11.0372881 8.66928814,11.1256949 C8.7899661,11.2146441 8.81572881,11.3844068 8.72705085,11.5048136 C8.64216949,11.6197966 8.58576271,11.7486102 8.55918644,11.888 C8.5339661,12.0181695 8.42033898,12.1084746 8.29288136,12.1084746 Z M9.43294915,11.12 C9.28840678,11.12 9.168,11.0058305 9.16230508,10.8599322 C9.15633898,10.7102373 9.27240678,10.5838644 9.42210169,10.5778983 C9.44515254,10.5768136 9.46820339,10.5762712 9.49152542,10.5762712 L9.97559322,10.5762712 C10.1255593,10.5762712 10.2467797,10.6974915 10.2467797,10.8474576 C10.2467797,10.9974237 10.1255593,11.1186441 9.97559322,11.1186441 L9.44433898,11.1197288 C9.44054237,11.12 9.43674576,11.12 9.43294915,11.12 Z M14.3728814,11.1186441 L14.3145763,11.1186441 C14.1646102,11.1186441 14.0433898,10.9974237 14.0433898,10.8474576 C14.0433898,10.6974915 14.1646102,10.5762712 14.3145763,10.5762712 L14.3728814,10.5762712 C14.5000678,10.5762712 14.6231864,10.5515932 14.7395254,10.5027797 C14.8764746,10.4444746 15.0364746,10.5095593 15.0945085,10.6478644 C15.1525424,10.7858983 15.0877288,10.9448136 14.9494237,11.0028475 C14.7663729,11.0795932 14.5724746,11.1186441 14.3728814,11.1186441 Z M13.2298305,11.1186441 L12.6874576,11.1186441 C12.5374915,11.1186441 12.4162712,10.9974237 12.4162712,10.8474576 C12.4162712,10.6974915 12.5374915,10.5762712 12.6874576,10.5762712 L13.2298305,10.5762712 C13.3797966,10.5762712 13.5010169,10.6974915 13.5010169,10.8474576 C13.5010169,10.9974237 13.3797966,11.1186441 13.2298305,11.1186441 Z M11.6027119,11.1186441 L11.060339,11.1186441 C10.9103729,11.1186441 10.7891525,10.9974237 10.7891525,10.8474576 C10.7891525,10.6974915 10.9103729,10.5762712 11.060339,10.5762712 L11.6027119,10.5762712 C11.752678,10.5762712 11.8738983,10.6974915 11.8738983,10.8474576 C11.8738983,10.9974237 11.752678,11.1186441 11.6027119,11.1186441 Z M15.5438644,10.2427119 C15.5186441,10.2427119 15.4928814,10.2391864 15.467661,10.2318644 C15.3239322,10.1898305 15.2414915,10.0390508 15.2835254,9.89532203 C15.3090169,9.80854237 15.3220339,9.71850847 15.3220339,9.62738983 C15.3225763,9.57532203 15.3182373,9.5259661 15.3106441,9.47769492 C15.2867797,9.32989831 15.3873898,9.19050847 15.5354576,9.16691525 C15.6827119,9.14250847 15.8223729,9.24366102 15.8462373,9.39172881 C15.8589831,9.47118644 15.8649492,9.55118644 15.8644068,9.62928814 C15.8644068,9.7700339 15.844339,9.91132203 15.8042034,10.0477288 C15.7694915,10.1659661 15.6612881,10.2427119 15.5438644,10.2427119 Z M14.9830508,8.84176271 C14.9369492,8.84176271 14.8900339,8.83010169 14.8471864,8.80515254 C14.724339,8.73383051 14.5903729,8.6920678 14.4485424,8.68094915 C14.2991186,8.66928814 14.187661,8.53884746 14.199322,8.38942373 C14.2109831,8.23972881 14.3419661,8.12935593 14.4908475,8.14020339 C14.7140339,8.15755932 14.9258305,8.22372881 15.1191864,8.336 C15.2488136,8.41111864 15.2930169,8.57735593 15.2176271,8.70671186 C15.1677288,8.79322034 15.0766102,8.84176271 14.9830508,8.84176271 Z M13.3849492,8.6779661 L12.8425763,8.6779661 C12.6926102,8.6779661 12.5713898,8.55674576 12.5713898,8.40677966 C12.5713898,8.25681356 12.6926102,8.13559322 12.8425763,8.13559322 L13.3849492,8.13559322 C13.5349153,8.13559322 13.6561356,8.25681356 13.6561356,8.40677966 C13.6561356,8.55674576 13.5349153,8.6779661 13.3849492,8.6779661 Z M11.7578305,8.6779661 L11.2154576,8.6779661 C11.0654915,8.6779661 10.9442712,8.55674576 10.9442712,8.40677966 C10.9442712,8.25681356 11.0654915,8.13559322 11.2154576,8.13559322 L11.7578305,8.13559322 C11.9077966,8.13559322 12.0290169,8.25681356 12.0290169,8.40677966 C12.0290169,8.55674576 11.9077966,8.6779661 11.7578305,8.6779661 Z M10.1307119,8.6779661 L9.58833898,8.6779661 C9.43837288,8.6779661 9.31715254,8.55674576 9.31715254,8.40677966 C9.31715254,8.25681356 9.43837288,8.13559322 9.58833898,8.13559322 L10.1307119,8.13559322 C10.280678,8.13559322 10.4018983,8.25681356 10.4018983,8.40677966 C10.4018983,8.55674576 10.280678,8.6779661 10.1307119,8.6779661 Z M8.50359322,8.6779661 L8.40677966,8.6779661 C8.22291525,8.67769492 8.04420339,8.64461017 7.87444068,8.5800678 C7.73450847,8.52664407 7.66454237,8.36989831 7.71769492,8.2299661 C7.77138983,8.08976271 7.92894915,8.02033898 8.06779661,8.07322034 C8.17572881,8.11444068 8.28989831,8.13532203 8.40732203,8.13559322 L8.50359322,8.13559322 C8.65355932,8.13559322 8.77477966,8.25681356 8.77477966,8.40677966 C8.77477966,8.55674576 8.65355932,8.6779661 8.50359322,8.6779661 Z M7.24718644,7.83864407 C7.13328814,7.83864407 7.02698305,7.76623729 6.98955932,7.6520678 C6.94020339,7.50237288 6.91552542,7.34562712 6.91552542,7.18616949 C6.91579661,7.12162712 6.91986441,7.05898305 6.92745763,6.9979661 C6.94589831,6.84989831 7.07715254,6.74549153 7.23037288,6.76284746 C7.37898305,6.78128814 7.48447458,6.91715254 7.46549153,7.06576271 C7.46033898,7.10562712 7.45816949,7.14657627 7.45789831,7.18752542 C7.45789831,7.28786441 7.47389831,7.38738983 7.50508475,7.48257627 C7.55172881,7.62467797 7.47444068,7.77816949 7.3320678,7.82508475 C7.30386441,7.83457627 7.27511864,7.83864407 7.24718644,7.83864407 Z M7.76352542,6.42061017 C7.67294915,6.42061017 7.58454237,6.37532203 7.53301695,6.29288136 C7.45383051,6.16569492 7.49261017,5.99837288 7.61952542,5.91918644 C7.80935593,5.80067797 8.01871186,5.72854237 8.24162712,5.70386441 C8.39159322,5.68840678 8.52447458,5.79498305 8.54101695,5.94386441 C8.55755932,6.09274576 8.44989831,6.22671186 8.30101695,6.24325424 C8.15972881,6.25898305 8.02684746,6.30481356 7.90671186,6.37966102 C7.8619661,6.40732203 7.81261017,6.42061017 7.76352542,6.42061017 Z M11.5254237,6.23728814 L10.9830508,6.23728814 C10.8330847,6.23728814 10.7118644,6.1160678 10.7118644,5.96610169 C10.7118644,5.81613559 10.8330847,5.69491525 10.9830508,5.69491525 L11.5254237,5.69491525 C11.6753898,5.69491525 11.7966102,5.81613559 11.7966102,5.96610169 C11.7966102,6.1160678 11.6753898,6.23728814 11.5254237,6.23728814 Z M9.89830508,6.23728814 L9.3559322,6.23728814 C9.2059661,6.23728814 9.08474576,6.1160678 9.08474576,5.96610169 C9.08474576,5.81613559 9.2059661,5.69491525 9.3559322,5.69491525 L9.89830508,5.69491525 C10.0482712,5.69491525 10.1694915,5.81613559 10.1694915,5.96610169 C10.1694915,6.1160678 10.0482712,6.23728814 9.89830508,6.23728814 Z" id="Shape" fill="#ED8A19"></path>
                <path d="M14.500339,0.72379661 L14.500339,0.72379661 C13.6442034,-0.241355932 12.256,-0.241355932 11.3998644,0.72379661 L11.3998644,0.72379661 C10.5437288,1.68894915 10.5437288,3.25342373 11.3998644,4.21857627 L12.9499661,5.96610169 L14.5000678,4.21857627 C15.3564746,3.25369492 15.3564746,1.68894915 14.500339,0.72379661 Z M13.0169492,3.52542373 C12.3430508,3.52542373 11.7966102,2.97898305 11.7966102,2.30508475 C11.7966102,1.63118644 12.3430508,1.08474576 13.0169492,1.08474576 C13.6908475,1.08474576 14.2372881,1.63118644 14.2372881,2.30508475 C14.2372881,2.97898305 13.6908475,3.52542373 13.0169492,3.52542373 Z" id="Shape" fill="#26B99A"></path>
                <path d="M5.2279322,7.76677966 C4.06291525,6.45071186 2.17410169,6.45071186 1.00935593,7.76677966 L1.00935593,7.76677966 C-0.155661017,9.08284746 -0.155661017,11.2165424 1.00935593,12.532339 L3.11864407,14.9152542 L5.2279322,12.532339 C6.39294915,11.2162712 6.39294915,9.08257627 5.2279322,7.76677966 Z M3.11864407,11.1186441 C2.36989831,11.1186441 1.76271186,10.5114576 1.76271186,9.76271186 C1.76271186,9.0139661 2.36989831,8.40677966 3.11864407,8.40677966 C3.86738983,8.40677966 4.47457627,9.0139661 4.47457627,9.76271186 C4.47457627,10.5114576 3.86738983,11.1186441 3.11864407,11.1186441 Z" id="Shape" fill="#3083C9"></path>
            </g>
        </g>
    </g>
</svg>