<?xml version="1.0" encoding="UTF-8"?>
<svg width="40px" height="45px" viewBox="0 0 40 45" version="1.1" xmlns="http://www.w3.org/2000/svg" xmlns:xlink="http://www.w3.org/1999/xlink">
    <title>location-svgrepo-com-2</title>
    <g id="Page-1" stroke="none" stroke-width="1" fill="none" fill-rule="evenodd">
        <g id="location-svgrepo-com-2">
            <path d="M15,15 C15,17.2055896 17.2428803,19 20,19 C22.7571197,19 25,17.2056958 25,15 C25,12.7945165 22.7571197,11 20,11 C17.2428803,11 15,12.7945165 15,15 Z" id="Path"></path>
            <path d="M21.1897537,41.032765 C20.8842337,41.2945333 20.4526347,41.4435577 20.0000672,41.4435577 C19.5476342,41.4435577 19.1160351,41.2945333 18.8103807,41.032765 C18.6773121,40.91865 16.3502256,38.9186852 13.3888458,36.0129724 L0,39.6139216 L19.9578616,45 L40,39.6098084 L26.6243267,36 C23.6566294,38.9125681 21.3230911,40.9184391 21.1897537,41.032765 Z" id="Path"></path>
            <path d="M4,16.1638436 C4,21.850149 14.6334859,32.9770695 19.9998671,38 C25.3662483,32.9756481 36,21.8463221 36,16.1638436 C36,8.9053165 28.8223206,3 19.9998671,3 C11.1774136,3 4,8.9053165 4,16.1638436 Z M19.9998671,8.65164418 C24.5196734,8.65164418 28.1967589,11.6769052 28.1967589,15.3955008 C28.1967589,19.1140963 24.5196734,22.1393573 19.9998671,22.1393573 C15.4800608,22.1393573 11.8029753,19.1140963 11.8029753,15.3955008 C11.8029753,11.6769052 15.4800608,8.65164418 19.9998671,8.65164418 Z" id="Shape" fill="#73D0F4" fill-rule="nonzero"></path>
            <path d="M28.2643006,33.1337623 C28.7542636,32.6113264 29.250574,32.0732251 29.7480998,31.5211017 C35.8870874,24.7078542 39,19.4244488 39,15.8177898 C39,7.09577259 30.252243,0 19.4999325,0 C8.7476219,0 0,7.09577259 0,15.8178994 C0,19.4245583 3.11291255,24.7078542 9.25190023,31.5212112 C9.7536126,32.0778262 10.2539745,32.6203094 10.7477189,33.1465795 C14.4000982,37.7170165 17.2551887,40.00149 19.3129902,40 C21.1477624,39.9986418 24.1315325,37.7098959 28.2643006,33.1337623 Z M35.7587895,15.8178994 C35.7587895,21.511125 24.952999,32.6614996 19.4997974,37.6953539 C14.0465959,32.6629237 3.24107542,21.5149592 3.24107542,15.8178994 C3.24107542,8.54564446 10.5347443,2.62915941 19.4999325,2.62915941 C28.4651206,2.62915941 35.7587895,8.54564446 35.7587895,15.8178994 Z" id="Shape" fill="#3D6889" fill-rule="nonzero"></path>
            <path d="M19.5,22 C24.1869416,22 28,18.8598343 28,15 C28,11.1401657 24.1869416,8 19.5,8 C14.8130584,8 11,11.1401657 11,15 C11,18.8598343 14.8130584,22 19.5,22 Z M24.6924461,15 C24.6924461,17.3578481 22.3632391,19.2761321 19.5,19.2761321 C16.6367609,19.2761321 14.3075539,17.3579616 14.3075539,15 C14.3075539,12.6422654 16.6367609,10.7238679 19.5,10.7238679 C22.3632391,10.7238679 24.6924461,12.6422654 24.6924461,15 Z" id="Shape" fill="#3D6889" fill-rule="nonzero"></path>
        </g>
    </g>
</svg>