<?xml version="1.0" encoding="UTF-8"?>
<svg width="30px" height="30px" viewBox="0 0 30 30" version="1.1" xmlns="http://www.w3.org/2000/svg" xmlns:xlink="http://www.w3.org/1999/xlink">
    <title>public-transportation-svgrepo-com</title>
    <g id="Page-1" stroke="none" stroke-width="1" fill="none" fill-rule="evenodd">
        <g id="public-transportation-svgrepo-com" fill="#FFFFFF" fill-rule="nonzero">
            <path d="M23.7723038,30 L6.2278481,30 C2.79379747,30 0,27.2058987 0,23.7714684 L0,6.2276962 C0,2.79372152 2.79379747,0 6.2278481,0 L23.7723038,0 C27.2062785,0 30,2.79372152 30,6.2276962 L30,23.7714684 C30,27.2058987 27.2062785,30 23.7723038,30 Z M6.2278481,1.13924051 C3.42197468,1.13924051 1.13924051,3.42189873 1.13924051,6.2276962 L1.13924051,23.7714684 C1.13924051,26.5777215 3.42197468,28.8607595 6.2278481,28.8607595 L23.7723038,28.8607595 C26.5780253,28.8607595 28.8607595,26.5777215 28.8607595,23.7714684 L28.8607595,6.2276962 C28.8607595,3.42189873 26.5780253,1.13924051 23.7723038,1.13924051 L6.2278481,1.13924051 Z" id="Shape"></path>
            <path d="M23.278481,19.5526329 L23.278481,13.7283038 C23.278481,13.5892405 23.2652658,13.4504051 23.2393671,13.3137722 L22.3490127,8.61736709 C22.2073671,7.87055696 21.694481,7.2476962 20.9888354,6.96531646 C20.8817468,6.92248101 18.3274937,5.9155443 15,5.9155443 C11.6725063,5.9155443 9.11825316,6.92248101 9.01116456,6.96531646 C8.30536709,7.2476962 7.79248101,7.87055696 7.65091139,8.61736709 L6.76070886,13.3137722 C6.73473418,13.4504051 6.72182278,13.5892405 6.72182278,13.7283038 L6.72182278,19.5522532 C6.63167089,19.6557722 6.57668354,19.7906582 6.57668354,19.9387595 L6.57668354,21.2349873 C6.57668354,21.5603544 6.8404557,21.8242025 7.16589873,21.8242025 L8.31243038,21.8242025 L8.31243038,23.1702532 C8.31243038,23.6752405 8.72179747,24.0845316 9.22678481,24.0845316 L10.520962,24.0845316 C11.0259494,24.0845316 11.4353165,23.6752405 11.4353165,23.1702532 L11.4353165,21.8242025 L18.5646835,21.8242025 L18.5646835,23.1702532 C18.5646835,23.6752405 18.9739747,24.0845316 19.478962,24.0845316 L20.7731392,24.0845316 C21.2781266,24.0845316 21.6874177,23.6752405 21.6874177,23.1702532 L21.6874177,21.8242025 L22.8340253,21.8242025 C23.1593924,21.8242025 23.4232405,21.5603544 23.4232405,21.2349873 L23.4232405,19.9387595 C23.4232405,19.7908861 23.3684051,19.6560759 23.278481,19.5526329 Z M13.7431139,7.10286076 L16.2568861,7.10286076 C16.5716203,7.10286076 16.8265063,7.35782278 16.8265063,7.67240506 C16.8265063,7.98698734 16.5716203,8.24194937 16.2568861,8.24194937 L13.7431139,8.24194937 C13.4284557,8.24194937 13.1734177,7.98698734 13.1734177,7.67240506 C13.1734177,7.35782278 13.4285316,7.10286076 13.7431139,7.10286076 Z M10.6111899,19.3161266 C9.83027848,19.3161266 9.19716456,18.6830127 9.19716456,17.9021013 C9.19716456,17.1211139 9.83027848,16.488 10.6111899,16.488 C11.3921772,16.488 12.0252911,17.1211139 12.0252911,17.9021013 C12.0252911,18.6830127 11.3921772,19.3161266 10.6111899,19.3161266 Z M16.2568861,20.7226329 L13.7431139,20.7226329 C13.4284557,20.7226329 13.1734177,20.4676709 13.1734177,20.1530886 C13.1734177,19.8384304 13.4284557,19.5834684 13.7431139,19.5834684 L16.2568861,19.5834684 C16.5716203,19.5834684 16.8265063,19.8384304 16.8265063,20.1530886 C16.8265063,20.4675949 16.5715443,20.7226329 16.2568861,20.7226329 Z M19.3887342,19.3161266 C18.6077468,19.3161266 17.9747848,18.6830127 17.9747848,17.9021013 C17.9747848,17.1211139 18.6077468,16.488 19.3887342,16.488 C20.1697215,16.488 20.8029114,17.1211139 20.8029114,17.9021013 C20.8029114,18.6830127 20.1697215,19.3161266 19.3887342,19.3161266 Z M8.9161519,13.5830464 L9.82959494,8.98739241 C13.276481,8.98739241 16.7235949,8.98739241 20.170557,8.98739241 L21.0838481,13.5830464 C16.8708608,13.5830464 13.1291392,13.5830464 8.9161519,13.5830464 Z" id="Shape"></path>
        </g>
    </g>
</svg>