<?xml version="1.0" encoding="UTF-8"?>
<svg width="30px" height="30px" viewBox="0 0 30 30" version="1.1" xmlns="http://www.w3.org/2000/svg" xmlns:xlink="http://www.w3.org/1999/xlink">
    <title>Group</title>
    <g id="Page-1" stroke="none" stroke-width="1" fill="none" fill-rule="evenodd">
        <g id="Group">
            <g id="public-transportation-svgrepo-com" fill="#130F26" fill-rule="nonzero">
                <path d="M23.7723038,30 L6.2278481,30 C2.79379747,30 0,27.2058987 0,23.7714684 L0,6.2276962 C0,2.79372152 2.79379747,0 6.2278481,0 L23.7723038,0 C27.2062785,0 30,2.79372152 30,6.2276962 L30,23.7714684 C30,27.2058987 27.2062785,30 23.7723038,30 Z M6.2278481,1.13924051 C3.42197468,1.13924051 1.13924051,3.42189873 1.13924051,6.2276962 L1.13924051,23.7714684 C1.13924051,26.5777215 3.42197468,28.8607595 6.2278481,28.8607595 L23.7723038,28.8607595 C26.5780253,28.8607595 28.8607595,26.5777215 28.8607595,23.7714684 L28.8607595,6.2276962 C28.8607595,3.42189873 26.5780253,1.13924051 23.7723038,1.13924051 L6.2278481,1.13924051 Z" id="Shape"></path>
            </g>
            <g id="setting-svgrepo-com" transform="translate(7.000000, 7.000000)" stroke="#130F26" stroke-linecap="round" stroke-linejoin="round" stroke-width="1.5">
                <path d="M8,6 C9.22746667,6 10.2222222,6.89528 10.2222222,8 C10.2222222,9.10472 9.22746667,10 8,10 C6.77253333,10 5.77777778,9.10472 5.77777778,8 C5.77777778,6.89528 6.77253333,6 8,6 Z" id="Stroke-1"></path>
                <path d="M15.2604444,4.2002 L15.2604444,4.2002 C14.6528889,3.246392 13.3077333,2.920032 12.2564444,3.470816 C11.3420444,3.948904 10.1992,3.350704 10.1992,2.393744 C10.1992,1.292952 9.21413333,0.4 7.99982222,0.4 L7.99982222,0.4 C6.78551111,0.4 5.80040889,1.292952 5.80040889,2.393744 C5.80040889,3.350704 4.65757333,3.948904 3.74399111,3.470816 C2.69181333,2.920032 1.34672889,3.246392 0.739137778,4.2002 C0.132408889,5.154 0.492435556,6.37332 1.54461333,6.92328 C2.45818667,7.40216 2.45818667,8.59784 1.54461333,9.07672 C0.492435556,9.62744 0.132408889,10.8468 0.739137778,11.79984 C1.34672889,12.7536 2.69181333,13.08 3.74312,12.53 L3.74399111,12.53 C4.65757333,12.05112 5.80040889,12.64928 5.80040889,13.60624 L5.80040889,13.60624 C5.80040889,14.70704 6.78551111,15.6 7.99982222,15.6 L7.99982222,15.6 C9.21413333,15.6 10.1992,14.70704 10.1992,13.60624 L10.1992,13.60624 C10.1992,12.64928 11.3420444,12.05112 12.2564444,12.53 C13.3077333,13.08 14.6528889,12.7536 15.2604444,11.79984 C15.868,10.8468 15.5071111,9.62744 14.4558222,9.07672 L14.4549333,9.07672 C13.5414222,8.59784 13.5414222,7.40216 14.4558222,6.92328 C15.5071111,6.37332 15.868,5.154 15.2604444,4.2002 Z" id="Stroke-3"></path>
            </g>
        </g>
    </g>
</svg>