<?xml version="1.0" encoding="UTF-8"?>
<svg width="25px" height="25px" viewBox="0 0 25 25" version="1.1" xmlns="http://www.w3.org/2000/svg" xmlns:xlink="http://www.w3.org/1999/xlink">
    <title>Group 3</title>
    <g id="Page-1" stroke="none" stroke-width="1" fill="none" fill-rule="evenodd">
        <g id="Group-3" fill="#FFFFFF" fill-rule="nonzero">
            <g id="layer-svgrepo-com">
                <path d="M14.2049014,0.585149041 L23.4485176,6.4361037 C24.115853,6.85850872 24.2961805,7.71457606 23.8512902,8.3481836 C23.7449372,8.49965017 23.6080469,8.62962186 23.4485176,8.73059957 L14.2049014,14.5815543 C12.9854041,15.3534625 11.3966725,15.3534625 10.1771752,14.5815543 L0.933559036,8.73059957 C0.266223505,8.30819455 0.0858960579,7.45212721 0.530786412,6.81851967 C0.637139345,6.66705311 0.774029636,6.53708141 0.933559036,6.4361037 L10.1771752,0.585149041 C11.3966725,-0.18675925 12.9854041,-0.18675925 14.2049014,0.585149041 Z M23.8459924,12.6738534 C23.6304938,13.0012246 23.3450006,13.281988 23.0079891,13.4979736 L14.2222287,19.1286324 C12.9948266,19.9152557 11.3872499,19.9152557 10.1598479,19.1286324 L1.37408748,13.4979736 C0.268966932,12.7897188 -0.15958313,11.4859055 0.242617305,10.3409925 L10.1771752,16.6278338 C11.320454,17.3514979 12.788255,17.3967268 13.9720989,16.7635209 L14.2049014,16.6278338 L24.1385205,10.3402974 C24.4023925,11.0933544 24.3236159,11.9482793 23.8459924,12.6738534 Z M23.8459924,17.1550197 C23.6304938,17.482391 23.3450006,17.7631544 23.0079891,17.97914 L14.2222287,23.6097988 C12.9948266,24.396422 11.3872499,24.396422 10.1598479,23.6097988 L1.37408748,17.97914 C0.268966932,17.2708852 -0.15958313,15.9670719 0.242617305,14.8221589 L10.1771752,21.1090002 C11.320454,21.8326643 12.788255,21.8778932 13.9720989,21.2446873 L14.2049014,21.1090002 L24.1385205,14.8214638 C24.4023925,15.5745208 24.3236159,16.4294457 23.8459924,17.1550197 Z" id="🎨-Color"></path>
            </g>
        </g>
    </g>
</svg>