<?xml version="1.0" encoding="UTF-8"?>
<svg width="25px" height="25px" viewBox="0 0 25 25" version="1.1" xmlns="http://www.w3.org/2000/svg" xmlns:xlink="http://www.w3.org/1999/xlink">
    <title>location-svgrepo-com</title>
    <g id="Page-1" stroke="none" stroke-width="1" fill="none" fill-rule="evenodd">
        <g id="location-svgrepo-com" fill="#FFFFFF" fill-rule="nonzero">
            <path d="M24.7613043,0.238804348 C24.5334783,0.0109782609 24.1928804,-0.06125 23.8922826,0.0543478261 L0.522608696,9.04217391 C0.216956522,9.15972826 0.01125,9.44880435 0.000489130435,9.7761413 C-0.010326087,10.1034783 0.17576087,10.4054891 0.47298913,10.5429891 L10.0344022,14.9657609 L14.4571739,24.5271739 C14.5908696,24.8161957 14.8801087,25.000163 15.1969565,25.000163 C15.2059239,25.000163 15.215,25.000163 15.2240217,24.9997283 C15.5513587,24.988913 15.8404348,24.7832609 15.9579891,24.4776087 L24.9457609,1.10788043 C25.061413,0.807173913 24.9891304,0.466576087 24.7613043,0.238804348 Z M15.1279348,22.0936413 L11.3884239,14.0093478 C11.3478261,13.9215761 11.2922826,13.8425 11.2249457,13.775163 L22.7655978,2.23456522 L15.1279348,22.0936413 Z" id="Shape"></path>
        </g>
    </g>
</svg>